{
  "asset": {
    "version": "2.0",
    "generator": "Custom glTF Generator"
  },
  "scene": 0,
  "scenes": [
    {
      "nodes": [0]
    }
  ],
  "nodes": [
    {
      "name": "AlienSkater",
      "children": [1, 2, 3]
    },
    {
      "name": "Alien",
      "mesh": 0,
      "translation": [0, 0.8, 0]
    },
    {
      "name": "Skateboard",
      "mesh": 1,
      "translation": [0, 0.1, 0]
    },
    {
      "name": "Wheels",
      "mesh": 2,
      "translation": [0, 0.05, 0]
    }
  ],
  "meshes": [
    {
      "name": "AlienMesh",
      "primitives": [
        {
          "attributes": {
            "POSITION": 0,
            "NORMAL": 1,
            "TEXCOORD_0": 2
          },
          "indices": 3,
          "material": 0
        }
      ]
    },
    {
      "name": "SkateboardMesh",
      "primitives": [
        {
          "attributes": {
            "POSITION": 4,
            "NORMAL": 5,
            "TEXCOORD_0": 6
          },
          "indices": 7,
          "material": 1
        }
      ]
    },
    {
      "name": "WheelsMesh",
      "primitives": [
        {
          "attributes": {
            "POSITION": 8,
            "NORMAL": 9,
            "TEXCOORD_0": 10
          },
          "indices": 11,
          "material": 2
        }
      ]
    }
  ],
  "materials": [
    {
      "name": "AlienMaterial",
      "pbrMetallicRoughness": {
        "baseColorFactor": [0.2, 0.9, 0.4, 1.0],
        "metallicFactor": 0.1,
        "roughnessFactor": 0.7
      },
      "emissiveFactor": [0.1, 0.3, 0.15]
    },
    {
      "name": "SkateboardMaterial",
      "pbrMetallicRoughness": {
        "baseColorFactor": [0.9, 0.1, 0.5, 1.0],
        "metallicFactor": 0.2,
        "roughnessFactor": 0.4
      }
    },
    {
      "name": "WheelsMaterial",
      "pbrMetallicRoughness": {
        "baseColorFactor": [1.0, 0.8, 0.1, 1.0],
        "metallicFactor": 0.3,
        "roughnessFactor": 0.5
      }
    }
  ],
  "buffers": [
    {
      "byteLength": 2880
    }
  ],
  "bufferViews": [
    {
      "buffer": 0,
      "byteOffset": 0,
      "byteLength": 432,
      "target": 34962
    },
    {
      "buffer": 0,
      "byteOffset": 432,
      "byteLength": 432,
      "target": 34962
    },
    {
      "buffer": 0,
      "byteOffset": 864,
      "byteLength": 288,
      "target": 34962
    },
    {
      "buffer": 0,
      "byteOffset": 1152,
      "byteLength": 144,
      "target": 34963
    },
    {
      "buffer": 0,
      "byteOffset": 1296,
      "byteLength": 288,
      "target": 34962
    },
    {
      "buffer": 0,
      "byteOffset": 1584,
      "byteLength": 288,
      "target": 34962
    },
    {
      "buffer": 0,
      "byteOffset": 1872,
      "byteLength": 192,
      "target": 34962
    },
    {
      "buffer": 0,
      "byteOffset": 2064,
      "byteLength": 72,
      "target": 34963
    },
    {
      "buffer": 0,
      "byteOffset": 2136,
      "byteLength": 192,
      "target": 34962
    },
    {
      "buffer": 0,
      "byteOffset": 2328,
      "byteLength": 192,
      "target": 34962
    },
    {
      "buffer": 0,
      "byteOffset": 2520,
      "byteLength": 128,
      "target": 34962
    },
    {
      "buffer": 0,
      "byteOffset": 2648,
      "byteLength": 96,
      "target": 34963
    }
  ],
  "accessors": [
    {
      "bufferView": 0,
      "byteOffset": 0,
      "componentType": 5126,
      "count": 36,
      "type": "VEC3",
      "min": [-0.4, -0.6, -0.3],
      "max": [0.4, 0.6, 0.3]
    },
    {
      "bufferView": 1,
      "byteOffset": 0,
      "componentType": 5126,
      "count": 36,
      "type": "VEC3"
    },
    {
      "bufferView": 2,
      "byteOffset": 0,
      "componentType": 5126,
      "count": 36,
      "type": "VEC2"
    },
    {
      "bufferView": 3,
      "byteOffset": 0,
      "componentType": 5123,
      "count": 72,
      "type": "SCALAR"
    },
    {
      "bufferView": 4,
      "byteOffset": 0,
      "componentType": 5126,
      "count": 24,
      "type": "VEC3",
      "min": [-0.6, -0.05, -0.15],
      "max": [0.6, 0.05, 0.15]
    },
    {
      "bufferView": 5,
      "byteOffset": 0,
      "componentType": 5126,
      "count": 24,
      "type": "VEC3"
    },
    {
      "bufferView": 6,
      "byteOffset": 0,
      "componentType": 5126,
      "count": 24,
      "type": "VEC2"
    },
    {
      "bufferView": 7,
      "byteOffset": 0,
      "componentType": 5123,
      "count": 36,
      "type": "SCALAR"
    },
    {
      "bufferView": 8,
      "byteOffset": 0,
      "componentType": 5126,
      "count": 16,
      "type": "VEC3",
      "min": [-0.5, -0.05, -0.1],
      "max": [0.5, 0.05, 0.1]
    },
    {
      "bufferView": 9,
      "byteOffset": 0,
      "componentType": 5126,
      "count": 16,
      "type": "VEC3"
    },
    {
      "bufferView": 10,
      "byteOffset": 0,
      "componentType": 5126,
      "count": 16,
      "type": "VEC2"
    },
    {
      "bufferView": 11,
      "byteOffset": 0,
      "componentType": 5123,
      "count": 48,
      "type": "SCALAR"
    }
  ]
}