{
  "asset": {
    "version": "2.0",
    "generator": "Awesome Alien Skateboarder Generator v2.0",
    "copyright": "2025 - Epic Alien Skateboarding Adventure"
  },
  "scene": 0,
  "scenes": [
    {
      "name": "AlienSkateboardScene",
      "nodes": [0]
    }
  ],
  "nodes": [
    {
      "name": "AwesomeAlienSkater",
      "children": [1, 2, 3, 4, 5],
      "rotation": [0, 0.707, 0, 0.707]
    },
    {
      "name": "AlienBody",
      "mesh": 0,
      "translation": [0, 1.2, 0],
      "scale": [1.2, 1.5, 1.0]
    },
    {
      "name": "AlienHead",
      "mesh": 1,
      "translation": [0, 2.0, 0],
      "scale": [1.5, 1.8, 1.3]
    },
    {
      "name": "FuturisticSkateboard",
      "mesh": 2,
      "translation": [0, 0.15, 0],
      "scale": [1.5, 1.0, 3.0]
    },
    {
      "name": "HoverWheels",
      "mesh": 3,
      "translation": [0, 0.08, 0],
      "rotation": [0, 0, 0, 1]
    },
    {
      "name": "AlienArms",
      "mesh": 4,
      "translation": [0, 1.5, 0],
      "rotation": [0.2, 0, 0, 0.98]
    }
  ],
  "meshes": [
    {
      "name": "AlienBodyMesh",
      "primitives": [
        {
          "attributes": {
            "POSITION": 0,
            "NORMAL": 1,
            "TEXCOORD_0": 2
          },
          "indices": 3,
          "material": 0
        }
      ]
    },
    {
      "name": "AlienHeadMesh",
      "primitives": [
        {
          "attributes": {
            "POSITION": 4,
            "NORMAL": 5,
            "TEXCOORD_0": 6
          },
          "indices": 7,
          "material": 1
        }
      ]
    },
    {
      "name": "FuturisticSkateboardMesh",
      "primitives": [
        {
          "attributes": {
            "POSITION": 8,
            "NORMAL": 9,
            "TEXCOORD_0": 10
          },
          "indices": 11,
          "material": 2
        }
      ]
    },
    {
      "name": "HoverWheelsMesh",
      "primitives": [
        {
          "attributes": {
            "POSITION": 12,
            "NORMAL": 13,
            "TEXCOORD_0": 14
          },
          "indices": 15,
          "material": 3
        }
      ]
    },
    {
      "name": "AlienArmsMesh",
      "primitives": [
        {
          "attributes": {
            "POSITION": 16,
            "NORMAL": 17,
            "TEXCOORD_0": 18
          },
          "indices": 19,
          "material": 4
        }
      ]
    }
  ],
  "materials": [
    {
      "name": "AlienSkinMaterial",
      "pbrMetallicRoughness": {
        "baseColorFactor": [0.3, 0.95, 0.6, 1.0],
        "metallicFactor": 0.0,
        "roughnessFactor": 0.8
      },
      "emissiveFactor": [0.15, 0.4, 0.2],
      "doubleSided": true
    },
    {
      "name": "AlienHeadMaterial",
      "pbrMetallicRoughness": {
        "baseColorFactor": [0.4, 0.9, 0.7, 0.9],
        "metallicFactor": 0.1,
        "roughnessFactor": 0.6
      },
      "emissiveFactor": [0.2, 0.5, 0.3],
      "doubleSided": true,
      "alphaCutoff": 0.5,
      "alphaMode": "BLEND"
    },
    {
      "name": "HolographicSkateboardMaterial",
      "pbrMetallicRoughness": {
        "baseColorFactor": [0.8, 0.2, 0.9, 1.0],
        "metallicFactor": 0.9,
        "roughnessFactor": 0.1
      },
      "emissiveFactor": [0.4, 0.1, 0.5]
    },
    {
      "name": "HoverWheelMaterial",
      "pbrMetallicRoughness": {
        "baseColorFactor": [0.1, 0.8, 1.0, 1.0],
        "metallicFactor": 0.8,
        "roughnessFactor": 0.2
      },
      "emissiveFactor": [0.05, 0.4, 0.5]
    },
    {
      "name": "AlienArmMaterial",
      "pbrMetallicRoughness": {
        "baseColorFactor": [0.35, 0.92, 0.65, 1.0],
        "metallicFactor": 0.05,
        "roughnessFactor": 0.75
      },
      "emissiveFactor": [0.12, 0.35, 0.18]
    }
  ],
  "accessors": [
    {
      "bufferView": 0,
      "componentType": 5126,
      "count": 24,
      "type": "VEC3",
      "max": [0.6, 1.0, 0.4],
      "min": [-0.6, -1.0, -0.4]
    },
    {
      "bufferView": 1,
      "componentType": 5126,
      "count": 24,
      "type": "VEC3"
    },
    {
      "bufferView": 2,
      "componentType": 5126,
      "count": 24,
      "type": "VEC2"
    },
    {
      "bufferView": 3,
      "componentType": 5123,
      "count": 36,
      "type": "SCALAR"
    },
    {
      "bufferView": 4,
      "componentType": 5126,
      "count": 42,
      "type": "VEC3",
      "max": [0.8, 0.9, 0.8],
      "min": [-0.8, -0.5, -0.8]
    },
    {
      "bufferView": 5,
      "componentType": 5126,
      "count": 42,
      "type": "VEC3"
    },
    {
      "bufferView": 6,
      "componentType": 5126,
      "count": 42,
      "type": "VEC2"
    },
    {
      "bufferView": 7,
      "componentType": 5123,
      "count": 120,
      "type": "SCALAR"
    },
    {
      "bufferView": 8,
      "componentType": 5126,
      "count": 32,
      "type": "VEC3",
      "max": [0.75, 0.1, 1.5],
      "min": [-0.75, -0.1, -1.5]
    },
    {
      "bufferView": 9,
      "componentType": 5126,
      "count": 32,
      "type": "VEC3"
    },
    {
      "bufferView": 10,
      "componentType": 5126,
      "count": 32,
      "type": "VEC2"
    },
    {
      "bufferView": 11,
      "componentType": 5123,
      "count": 72,
      "type": "SCALAR"
    },
    {
      "bufferView": 12,
      "componentType": 5126,
      "count": 80,
      "type": "VEC3",
      "max": [0.8, 0.3, 1.6],
      "min": [-0.8, -0.3, -1.6]
    },
    {
      "bufferView": 13,
      "componentType": 5126,
      "count": 80,
      "type": "VEC3"
    },
    {
      "bufferView": 14,
      "componentType": 5126,
      "count": 80,
      "type": "VEC2"
    },
    {
      "bufferView": 15,
      "componentType": 5123,
      "count": 240,
      "type": "SCALAR"
    },
    {
      "bufferView": 16,
      "componentType": 5126,
      "count": 48,
      "type": "VEC3",
      "max": [1.2, 0.8, 0.3],
      "min": [-1.2, -0.8, -0.3]
    },
    {
      "bufferView": 17,
      "componentType": 5126,
      "count": 48,
      "type": "VEC3"
    },
    {
      "bufferView": 18,
      "componentType": 5126,
      "count": 48,
      "type": "VEC2"
    },
    {
      "bufferView": 19,
      "componentType": 5123,
      "count": 144,
      "type": "SCALAR"
    }
  ],
  "bufferViews": [
    {
      "buffer": 0,
      "byteOffset": 0,
      "byteLength": 288
    },
    {
      "buffer": 0,
      "byteOffset": 288,
      "byteLength": 288
    },
    {
      "buffer": 0,
      "byteOffset": 576,
      "byteLength": 192
    },
    {
      "buffer": 0,
      "byteOffset": 768,
      "byteLength": 72
    },
    {
      "buffer": 0,
      "byteOffset": 840,
      "byteLength": 504
    },
    {
      "buffer": 0,
      "byteOffset": 1344,
      "byteLength": 504
    },
    {
      "buffer": 0,
      "byteOffset": 1848,
      "byteLength": 336
    },
    {
      "buffer": 0,
      "byteOffset": 2184,
      "byteLength": 240
    },
    {
      "buffer": 0,
      "byteOffset": 2424,
      "byteLength": 384
    },
    {
      "buffer": 0,
      "byteOffset": 2808,
      "byteLength": 384
    },
    {
      "buffer": 0,
      "byteOffset": 3192,
      "byteLength": 256
    },
    {
      "buffer": 0,
      "byteOffset": 3448,
      "byteLength": 144
    },
    {
      "buffer": 0,
      "byteOffset": 3592,
      "byteLength": 960
    },
    {
      "buffer": 0,
      "byteOffset": 4552,
      "byteLength": 960
    },
    {
      "buffer": 0,
      "byteOffset": 5512,
      "byteLength": 640
    },
    {
      "buffer": 0,
      "byteOffset": 6152,
      "byteLength": 480
    },
    {
      "buffer": 0,
      "byteOffset": 6632,
      "byteLength": 576
    },
    {
      "buffer": 0,
      "byteOffset": 7208,
      "byteLength": 576
    },
    {
      "buffer": 0,
      "byteOffset": 7784,
      "byteLength": 384
    },
    {
      "buffer": 0,
      "byteOffset": 8168,
      "byteLength": 288
    }
  ],
  "buffers": [
    {
      "byteLength": 8456,
      "uri": "data:application/octet-stream;base64,"
    }
  ],
  "animations": [
    {
      "name": "SkateboardTrick",
      "channels": [
        {
          "sampler": 0,
          "target": {
            "node": 0,
            "path": "rotation"
          }
        },
        {
          "sampler": 1,
          "target": {
            "node": 4,
            "path": "rotation"
          }
        }
      ],
      "samplers": [
        {
          "input": 20,
          "interpolation": "LINEAR",
          "output": 21
        },
        {
          "input": 22,
          "interpolation": "LINEAR",
          "output": 23
        }
      ]
    }
  ],
  "extensions": {
    "KHR_materials_emissive_strength": {
      "materials": [
        {"emissiveStrength": 2.0},
        {"emissiveStrength": 3.0},
        {"emissiveStrength": 1.5},
        {"emissiveStrength": 2.5},
        {"emissiveStrength": 1.8}
      ]
    }
  },
  "extensionsUsed": [
    "KHR_materials_emissive_strength"
  ]
}
